Nimra-Regular.ufo
<glyph name="one" format="1">
  <advance width="1250"/>
  <unicode hex="0031"/>
  <outline>
    <contour>
      <point x="626" y="0" type="curve" smooth="yes"/>
      <point x="1014" y="0" type="line" smooth="yes"/>
      <point x="1052" y="0"/>
      <point x="1080" y="28"/>
      <point x="1080" y="66" type="curve" smooth="yes"/>
      <point x="1080" y="454" type="line" smooth="yes"/>
      <point x="1080" y="492"/>
      <point x="1052" y="520"/>
      <point x="1014" y="520" type="curve" smooth="yes"/>
      <point x="886" y="520" type="line" smooth="yes"/>
      <point x="848" y="520"/>
      <point x="820" y="548"/>
      <point x="820" y="586" type="curve" smooth="yes"/>
      <point x="820" y="1104" type="line" smooth="yes"/>
      <point x="820" y="1142"/>
      <point x="792" y="1170"/>
      <point x="754" y="1170" type="curve" smooth="yes"/>
      <point x="626" y="1170" type="line" smooth="yes"/>
      <point x="588" y="1170"/>
      <point x="560" y="1142"/>
      <point x="560" y="1104" type="curve" smooth="yes"/>
      <point x="560" y="1041" type="line" smooth="yes"/>
      <point x="560" y="1003"/>
      <point x="588" y="975"/>
      <point x="625" y="975" type="curve" smooth="yes"/>
      <point x="662" y="975"/>
      <point x="690" y="947"/>
      <point x="690" y="909" type="curve" smooth="yes"/>
      <point x="690" y="586" type="line" smooth="yes"/>
      <point x="690" y="548"/>
      <point x="662" y="520"/>
      <point x="625" y="520" type="curve" smooth="yes"/>
      <point x="588" y="520"/>
      <point x="560" y="492"/>
      <point x="560" y="454" type="curve" smooth="yes"/>
      <point x="560" y="66" type="line" smooth="yes"/>
      <point x="560" y="28"/>
      <point x="588" y="0"/>
    </contour>
  </outline>
</glyph>
<glyph name="two" format="1">
  <advance width="1250"/>
  <unicode hex="0032"/>
  <outline>
    <contour>
      <point x="626" y="0" type="curve" smooth="yes"/>
      <point x="1014" y="0" type="line" smooth="yes"/>
      <point x="1052" y="0"/>
      <point x="1080" y="28"/>
      <point x="1080" y="65" type="curve" smooth="yes"/>
      <point x="1080" y="102"/>
      <point x="1052" y="130"/>
      <point x="1014" y="130" type="curve" smooth="yes"/>
      <point x="756" y="130" type="line" smooth="yes"/>
      <point x="718" y="130"/>
      <point x="690" y="158"/>
      <point x="690" y="196" type="curve" smooth="yes"/>
      <point x="690" y="454" type="line" smooth="yes"/>
      <point x="690" y="492"/>
      <point x="718" y="520"/>
      <point x="756" y="520" type="curve" smooth="yes"/>
      <point x="1014" y="520" type="line" smooth="yes"/>
      <point x="1052" y="520"/>
      <point x="1080" y="548"/>
      <point x="1080" y="586" type="curve" smooth="yes"/>
      <point x="1080" y="1104" type="line" smooth="yes"/>
      <point x="1080" y="1142"/>
      <point x="1052" y="1170"/>
      <point x="1014" y="1170" type="curve" smooth="yes"/>
      <point x="626" y="1170" type="line" smooth="yes"/>
      <point x="588" y="1170"/>
      <point x="560" y="1142"/>
      <point x="560" y="1105" type="curve" smooth="yes"/>
      <point x="560" y="1067"/>
      <point x="588" y="1040"/>
      <point x="626" y="1040" type="curve" smooth="yes"/>
      <point x="884" y="1040" type="line" smooth="yes"/>
      <point x="922" y="1040"/>
      <point x="950" y="1012"/>
      <point x="950" y="974" type="curve" smooth="yes"/>
      <point x="950" y="716" type="line" smooth="yes"/>
      <point x="950" y="678"/>
      <point x="922" y="650"/>
      <point x="884" y="650" type="curve" smooth="yes"/>
      <point x="626" y="650" type="line" smooth="yes"/>
      <point x="588" y="650"/>
      <point x="560" y="622"/>
      <point x="560" y="584" type="curve" smooth="yes"/>
      <point x="560" y="66" type="line" smooth="yes"/>
      <point x="560" y="28"/>
      <point x="588" y="0"/>
    </contour>
  </outline>
</glyph>
<glyph name="three" format="1">
  <advance width="1250"/>
  <unicode hex="0033"/>
  <outline>
    <contour>
      <point x="496" y="0" type="curve" smooth="yes"/>
      <point x="1014" y="0" type="line" smooth="yes"/>
      <point x="1052" y="0"/>
      <point x="1080" y="28"/>
      <point x="1080" y="66" type="curve" smooth="yes"/>
      <point x="1080" y="519" type="line" smooth="yes"/>
      <point x="1080" y="557"/>
      <point x="1052" y="585"/>
      <point x="1015" y="585" type="curve" smooth="yes"/>
      <point x="978" y="585"/>
      <point x="950" y="613"/>
      <point x="950" y="651" type="curve" smooth="yes"/>
      <point x="950" y="1104" type="line" smooth="yes"/>
      <point x="950" y="1142"/>
      <point x="922" y="1170"/>
      <point x="884" y="1170" type="curve" smooth="yes"/>
      <point x="496" y="1170" type="line" smooth="yes"/>
      <point x="458" y="1170"/>
      <point x="430" y="1142"/>
      <point x="430" y="1105" type="curve" smooth="yes"/>
      <point x="430" y="1068"/>
      <point x="458" y="1040"/>
      <point x="496" y="1040" type="curve" smooth="yes"/>
      <point x="754" y="1040" type="line" smooth="yes"/>
      <point x="792" y="1040"/>
      <point x="820" y="1012"/>
      <point x="820" y="974" type="curve" smooth="yes"/>
      <point x="820" y="716" type="line" smooth="yes"/>
      <point x="820" y="678"/>
      <point x="792" y="650"/>
      <point x="754" y="650" type="curve" smooth="yes"/>
      <point x="496" y="650" type="line" smooth="yes"/>
      <point x="458" y="650"/>
      <point x="430" y="622"/>
      <point x="430" y="585" type="curve" smooth="yes"/>
      <point x="430" y="548"/>
      <point x="458" y="520"/>
      <point x="496" y="520" type="curve" smooth="yes"/>
      <point x="754" y="520" type="line" smooth="yes"/>
      <point x="792" y="520"/>
      <point x="820" y="492"/>
      <point x="820" y="454" type="curve" smooth="yes"/>
      <point x="820" y="196" type="line" smooth="yes"/>
      <point x="820" y="158"/>
      <point x="792" y="130"/>
      <point x="754" y="130" type="curve" smooth="yes"/>
      <point x="496" y="130" type="line" smooth="yes"/>
      <point x="458" y="130"/>
      <point x="430" y="102"/>
      <point x="430" y="65" type="curve" smooth="yes"/>
      <point x="430" y="28"/>
      <point x="458" y="0"/>
    </contour>
  </outline>
</glyph>
<glyph name="four" format="1">
  <advance width="1250"/>
  <unicode hex="0034"/>
  <outline>
    <contour>
      <point x="886" y="0" type="curve" smooth="yes"/>
      <point x="1014" y="0" type="line" smooth="yes"/>
      <point x="1052" y="0"/>
      <point x="1080" y="28"/>
      <point x="1080" y="66" type="curve" smooth="yes"/>
      <point x="1080" y="454" type="line" smooth="yes"/>
      <point x="1080" y="492"/>
      <point x="1052" y="520"/>
      <point x="1014" y="520" type="curve" smooth="yes"/>
      <point x="886" y="520" type="line" smooth="yes"/>
      <point x="848" y="520"/>
      <point x="820" y="492"/>
      <point x="820" y="455" type="curve" smooth="yes"/>
      <point x="820" y="417"/>
      <point x="792" y="390"/>
      <point x="754" y="390" type="curve" smooth="yes"/>
      <point x="626" y="390" type="line" smooth="yes"/>
      <point x="588" y="390"/>
      <point x="560" y="418"/>
      <point x="560" y="456" type="curve" smooth="yes"/>
      <point x="560" y="1104" type="line" smooth="yes"/>
      <point x="560" y="1142"/>
      <point x="532" y="1170"/>
      <point x="494" y="1170" type="curve" smooth="yes"/>
      <point x="366" y="1170" type="line" smooth="yes"/>
      <point x="328" y="1170"/>
      <point x="300" y="1142"/>
      <point x="300" y="1104" type="curve" smooth="yes"/>
      <point x="300" y="326" type="line" smooth="yes"/>
      <point x="300" y="288"/>
      <point x="328" y="260"/>
      <point x="366" y="260" type="curve" smooth="yes"/>
      <point x="754" y="260" type="line" smooth="yes"/>
      <point x="792" y="260"/>
      <point x="820" y="232"/>
      <point x="820" y="194" type="curve" smooth="yes"/>
      <point x="820" y="66" type="line" smooth="yes"/>
      <point x="820" y="28"/>
      <point x="848" y="0"/>
    </contour>
  </outline>
</glyph>
<glyph name="five" format="1">
  <advance width="1250"/>
  <unicode hex="0035"/>
  <outline>
    <contour>
      <point x="496" y="0" type="curve" smooth="yes"/>
      <point x="1014" y="0" type="line" smooth="yes"/>
      <point x="1052" y="0"/>
      <point x="1080" y="28"/>
      <point x="1080" y="66" type="curve" smooth="yes"/>
      <point x="1080" y="584" type="line" smooth="yes"/>
      <point x="1080" y="622"/>
      <point x="1052" y="650"/>
      <point x="1014" y="650" type="curve" smooth="yes"/>
      <point x="626" y="650" type="line" smooth="yes"/>
      <point x="588" y="650"/>
      <point x="560" y="678"/>
      <point x="560" y="716" type="curve" smooth="yes"/>
      <point x="560" y="974" type="line" smooth="yes"/>
      <point x="560" y="1012"/>
      <point x="588" y="1040"/>
      <point x="626" y="1040" type="curve" smooth="yes"/>
      <point x="1014" y="1040" type="line" smooth="yes"/>
      <point x="1052" y="1040"/>
      <point x="1080" y="1068"/>
      <point x="1080" y="1105" type="curve" smooth="yes"/>
      <point x="1080" y="1143"/>
      <point x="1052" y="1170"/>
      <point x="1014" y="1170" type="curve" smooth="yes"/>
      <point x="496" y="1170" type="line" smooth="yes"/>
      <point x="458" y="1170"/>
      <point x="430" y="1142"/>
      <point x="430" y="1104" type="curve" smooth="yes"/>
      <point x="430" y="586" type="line" smooth="yes"/>
      <point x="430" y="548"/>
      <point x="458" y="520"/>
      <point x="496" y="520" type="curve" smooth="yes"/>
      <point x="884" y="520" type="line" smooth="yes"/>
      <point x="922" y="520"/>
      <point x="950" y="492"/>
      <point x="950" y="454" type="curve" smooth="yes"/>
      <point x="950" y="196" type="line" smooth="yes"/>
      <point x="950" y="158"/>
      <point x="922" y="130"/>
      <point x="884" y="130" type="curve" smooth="yes"/>
      <point x="496" y="130" type="line" smooth="yes"/>
      <point x="458" y="130"/>
      <point x="430" y="102"/>
      <point x="430" y="65" type="curve" smooth="yes"/>
      <point x="430" y="28"/>
      <point x="458" y="0"/>
    </contour>
  </outline>
</glyph>
<glyph name="six" format="1">
  <advance width="1250"/>
  <unicode hex="0036"/>
  <outline>
    <contour>
      <point x="366" y="0" type="curve" smooth="yes"/>
      <point x="1014" y="0" type="line" smooth="yes"/>
      <point x="1052" y="0"/>
      <point x="1080" y="28"/>
      <point x="1080" y="66" type="curve" smooth="yes"/>
      <point x="1080" y="454" type="line" smooth="yes"/>
      <point x="1080" y="492"/>
      <point x="1052" y="520"/>
      <point x="1014" y="520" type="curve" smooth="yes"/>
      <point x="496" y="520" type="line" smooth="yes"/>
      <point x="458" y="520"/>
      <point x="430" y="548"/>
      <point x="430" y="586" type="curve" smooth="yes"/>
      <point x="430" y="974" type="line" smooth="yes"/>
      <point x="430" y="1012"/>
      <point x="458" y="1040"/>
      <point x="496" y="1040" type="curve" smooth="yes"/>
      <point x="624" y="1040" type="line" smooth="yes"/>
      <point x="662" y="1040"/>
      <point x="690" y="1012"/>
      <point x="690" y="974" type="curve" smooth="yes"/>
      <point x="690" y="911" type="line" smooth="yes"/>
      <point x="690" y="873"/>
      <point x="718" y="845"/>
      <point x="755" y="845" type="curve" smooth="yes"/>
      <point x="792" y="845"/>
      <point x="820" y="873"/>
      <point x="820" y="911" type="curve" smooth="yes"/>
      <point x="820" y="1104" type="line" smooth="yes"/>
      <point x="820" y="1142"/>
      <point x="792" y="1170"/>
      <point x="754" y="1170" type="curve" smooth="yes"/>
      <point x="366" y="1170" type="line" smooth="yes"/>
      <point x="328" y="1170"/>
      <point x="300" y="1142"/>
      <point x="300" y="1104" type="curve" smooth="yes"/>
      <point x="300" y="66" type="line" smooth="yes"/>
      <point x="300" y="28"/>
      <point x="328" y="0"/>
    </contour>
    <contour>
      <point x="496" y="130" type="line" smooth="yes"/>
      <point x="458" y="130"/>
      <point x="430" y="158"/>
      <point x="430" y="196" type="curve" smooth="yes"/>
      <point x="430" y="324" type="line" smooth="yes"/>
      <point x="430" y="362"/>
      <point x="458" y="390"/>
      <point x="496" y="390" type="curve" smooth="yes"/>
      <point x="884" y="390" type="line" smooth="yes"/>
      <point x="922" y="390"/>
      <point x="950" y="362"/>
      <point x="950" y="324" type="curve" smooth="yes"/>
      <point x="950" y="196" type="line" smooth="yes"/>
      <point x="950" y="158"/>
      <point x="922" y="130"/>
      <point x="884" y="130" type="curve" smooth="yes"/>
    </contour>
  </outline>
</glyph>
<glyph name="seven" format="1">
  <advance width="1250"/>
  <unicode hex="0037"/>
  <outline>
    <contour>
      <point x="755" y="0" type="curve" smooth="yes"/>
      <point x="793" y="0"/>
      <point x="820" y="28"/>
      <point x="820" y="66" type="curve" smooth="yes"/>
      <point x="820" y="484" type="line" smooth="yes"/>
      <point x="820" y="506"/>
      <point x="832" y="526"/>
      <point x="852" y="536" type="curve" smooth="yes"/>
      <point x="1048" y="634" type="line" smooth="yes"/>
      <point x="1068" y="644"/>
      <point x="1080" y="664"/>
      <point x="1080" y="686" type="curve" smooth="yes"/>
      <point x="1080" y="1104" type="line" smooth="yes"/>
      <point x="1080" y="1142"/>
      <point x="1052" y="1170"/>
      <point x="1014" y="1170" type="curve" smooth="yes"/>
      <point x="496" y="1170" type="line" smooth="yes"/>
      <point x="458" y="1170"/>
      <point x="430" y="1142"/>
      <point x="430" y="1104" type="curve" smooth="yes"/>
      <point x="430" y="846" type="line" smooth="yes"/>
      <point x="430" y="808"/>
      <point x="458" y="780"/>
      <point x="495" y="780" type="curve" smooth="yes"/>
      <point x="532" y="780"/>
      <point x="560" y="808"/>
      <point x="560" y="846" type="curve" smooth="yes"/>
      <point x="560" y="974" type="line" smooth="yes"/>
      <point x="560" y="1012"/>
      <point x="588" y="1040"/>
      <point x="626" y="1040" type="curve" smooth="yes"/>
      <point x="884" y="1040" type="line" smooth="yes"/>
      <point x="922" y="1040"/>
      <point x="950" y="1012"/>
      <point x="950" y="974" type="curve" smooth="yes"/>
      <point x="950" y="766" type="line" smooth="yes"/>
      <point x="950" y="744"/>
      <point x="938" y="724"/>
      <point x="918" y="714" type="curve" smooth="yes"/>
      <point x="722" y="616" type="line" smooth="yes"/>
      <point x="702" y="606"/>
      <point x="690" y="586"/>
      <point x="690" y="564" type="curve" smooth="yes"/>
      <point x="690" y="66" type="line" smooth="yes"/>
      <point x="690" y="28"/>
      <point x="718" y="0"/>
    </contour>
  </outline>
</glyph>
<glyph name="eight" format="1">
  <advance width="1250"/>
  <unicode hex="0038"/>
  <outline>
    <contour>
      <point x="236" y="0" type="curve" smooth="yes"/>
      <point x="1014" y="0" type="line" smooth="yes"/>
      <point x="1052" y="0"/>
      <point x="1080" y="28"/>
      <point x="1080" y="66" type="curve" smooth="yes"/>
      <point x="1080" y="519" type="line" smooth="yes"/>
      <point x="1080" y="557"/>
      <point x="1052" y="585"/>
      <point x="1015" y="585" type="curve" smooth="yes"/>
      <point x="978" y="585"/>
      <point x="950" y="613"/>
      <point x="950" y="651" type="curve" smooth="yes"/>
      <point x="950" y="1104" type="line" smooth="yes"/>
      <point x="950" y="1142"/>
      <point x="922" y="1170"/>
      <point x="884" y="1170" type="curve" smooth="yes"/>
      <point x="366" y="1170" type="line" smooth="yes"/>
      <point x="328" y="1170"/>
      <point x="300" y="1142"/>
      <point x="300" y="1104" type="curve" smooth="yes"/>
      <point x="300" y="651" type="line" smooth="yes"/>
      <point x="300" y="613"/>
      <point x="272" y="585"/>
      <point x="235" y="585" type="curve" smooth="yes"/>
      <point x="198" y="585"/>
      <point x="170" y="557"/>
      <point x="170" y="519" type="curve" smooth="yes"/>
      <point x="170" y="66" type="line" smooth="yes"/>
      <point x="170" y="28"/>
      <point x="198" y="0"/>
    </contour>
    <contour>
      <point x="496" y="130" type="line" smooth="yes"/>
      <point x="458" y="130"/>
      <point x="430" y="158"/>
      <point x="430" y="196" type="curve" smooth="yes"/>
      <point x="430" y="454" type="line" smooth="yes"/>
      <point x="430" y="492"/>
      <point x="458" y="520"/>
      <point x="496" y="520" type="curve" smooth="yes"/>
      <point x="754" y="520" type="line" smooth="yes"/>
      <point x="792" y="520"/>
      <point x="820" y="492"/>
      <point x="820" y="454" type="curve" smooth="yes"/>
      <point x="820" y="196" type="line" smooth="yes"/>
      <point x="820" y="158"/>
      <point x="792" y="130"/>
      <point x="754" y="130" type="curve" smooth="yes"/>
    </contour>
    <contour>
      <point x="496" y="650" type="line" smooth="yes"/>
      <point x="458" y="650"/>
      <point x="430" y="678"/>
      <point x="430" y="716" type="curve" smooth="yes"/>
      <point x="430" y="974" type="line" smooth="yes"/>
      <point x="430" y="1012"/>
      <point x="458" y="1040"/>
      <point x="496" y="1040" type="curve" smooth="yes"/>
      <point x="754" y="1040" type="line" smooth="yes"/>
      <point x="792" y="1040"/>
      <point x="820" y="1012"/>
      <point x="820" y="974" type="curve" smooth="yes"/>
      <point x="820" y="716" type="line" smooth="yes"/>
      <point x="820" y="678"/>
      <point x="792" y="650"/>
      <point x="754" y="650" type="curve" smooth="yes"/>
    </contour>
  </outline>
</glyph>
<glyph name="uni0660" format="1">
  <advance width="1250"/>
  <unicode hex="0660"/>
  <outline>
    <contour>
      <point x="626" y="260" type="curve" smooth="yes"/>
      <point x="1014" y="260" type="line" smooth="yes"/>
      <point x="1052" y="260"/>
      <point x="1080" y="288"/>
      <point x="1080" y="326" type="curve" smooth="yes"/>
      <point x="1080" y="714" type="line" smooth="yes"/>
      <point x="1080" y="752"/>
      <point x="1052" y="780"/>
      <point x="1014" y="780" type="curve" smooth="yes"/>
      <point x="626" y="780" type="line" smooth="yes"/>
      <point x="588" y="780"/>
      <point x="560" y="752"/>
      <point x="560" y="714" type="curve" smooth="yes"/>
      <point x="560" y="326" type="line" smooth="yes"/>
      <point x="560" y="288"/>
      <point x="588" y="260"/>
    </contour>
  </outline>
</glyph>
<glyph name="uni0661" format="1">
  <advance width="1250"/>
  <unicode hex="0661"/>
  <outline>
    <contour>
      <point x="1015" y="0" type="curve" smooth="yes"/>
      <point x="1052" y="0"/>
      <point x="1080" y="28"/>
      <point x="1080" y="66" type="curve" smooth="yes"/>
      <point x="1080" y="1104" type="line" smooth="yes"/>
      <point x="1080" y="1142"/>
      <point x="1052" y="1170"/>
      <point x="1014" y="1170" type="curve" smooth="yes"/>
      <point x="886" y="1170" type="line" smooth="yes"/>
      <point x="848" y="1170"/>
      <point x="820" y="1142"/>
      <point x="820" y="1104" type="curve" smooth="yes"/>
      <point x="820" y="456" type="line" smooth="yes"/>
      <point x="820" y="418"/>
      <point x="848" y="390"/>
      <point x="885" y="390" type="curve" smooth="yes"/>
      <point x="922" y="390"/>
      <point x="950" y="362"/>
      <point x="950" y="324" type="curve" smooth="yes"/>
      <point x="950" y="66" type="line" smooth="yes"/>
      <point x="950" y="28"/>
      <point x="978" y="0"/>
    </contour>
  </outline>
</glyph>
<glyph name="uni0662" format="1">
  <advance width="1250"/>
  <unicode hex="0662"/>
  <outline>
    <contour>
      <point x="625" y="0" type="curve" smooth="yes"/>
      <point x="662" y="0"/>
      <point x="690" y="28"/>
      <point x="690" y="66" type="curve" smooth="yes"/>
      <point x="690" y="974" type="line" smooth="yes"/>
      <point x="690" y="1012"/>
      <point x="718" y="1040"/>
      <point x="756" y="1040" type="curve" smooth="yes"/>
      <point x="1014" y="1040" type="line" smooth="yes"/>
      <point x="1052" y="1040"/>
      <point x="1080" y="1068"/>
      <point x="1080" y="1105" type="curve" smooth="yes"/>
      <point x="1080" y="1142"/>
      <point x="1052" y="1170"/>
      <point x="1014" y="1170" type="curve" smooth="yes"/>
      <point x="626" y="1170" type="line" smooth="yes"/>
      <point x="588" y="1170"/>
      <point x="560" y="1142"/>
      <point x="560" y="1104" type="curve" smooth="yes"/>
      <point x="560" y="66" type="line" smooth="yes"/>
      <point x="560" y="28"/>
      <point x="588" y="0"/>
    </contour>
  </outline>
</glyph>
<glyph name="uni0663" format="1">
  <advance width="1250"/>
  <unicode hex="0663"/>
  <outline>
    <contour>
      <point x="235" y="0" type="curve" smooth="yes"/>
      <point x="272" y="0"/>
      <point x="300" y="28"/>
      <point x="300" y="66" type="curve" smooth="yes"/>
      <point x="300" y="454" type="line" smooth="yes"/>
      <point x="300" y="492"/>
      <point x="328" y="520"/>
      <point x="366" y="520" type="curve" smooth="yes"/>
      <point x="559" y="520" type="line" smooth="yes"/>
      <point x="597" y="520"/>
      <point x="625" y="492"/>
      <point x="625" y="455" type="curve" smooth="yes"/>
      <point x="625" y="418"/>
      <point x="653" y="390"/>
      <point x="691" y="390" type="curve" smooth="yes"/>
      <point x="1014" y="390" type="line" smooth="yes"/>
      <point x="1052" y="390"/>
      <point x="1080" y="418"/>
      <point x="1080" y="456" type="curve" smooth="yes"/>
      <point x="1080" y="1104" type="line" smooth="yes"/>
      <point x="1080" y="1142"/>
      <point x="1052" y="1170"/>
      <point x="1015" y="1170" type="curve" smooth="yes"/>
      <point x="978" y="1170"/>
      <point x="950" y="1142"/>
      <point x="950" y="1104" type="curve" smooth="yes"/>
      <point x="950" y="716" type="line" smooth="yes"/>
      <point x="950" y="678"/>
      <point x="922" y="650"/>
      <point x="884" y="650" type="curve" smooth="yes"/>
      <point x="756" y="650" type="line" smooth="yes"/>
      <point x="718" y="650"/>
      <point x="690" y="678"/>
      <point x="690" y="716" type="curve" smooth="yes"/>
      <point x="690" y="844" type="line" smooth="yes"/>
      <point x="690" y="882"/>
      <point x="662" y="910"/>
      <point x="625" y="910" type="curve" smooth="yes"/>
      <point x="588" y="910"/>
      <point x="560" y="882"/>
      <point x="560" y="844" type="curve" smooth="yes"/>
      <point x="560" y="716" type="line" smooth="yes"/>
      <point x="560" y="678"/>
      <point x="532" y="650"/>
      <point x="494" y="650" type="curve" smooth="yes"/>
      <point x="366" y="650" type="line" smooth="yes"/>
      <point x="328" y="650"/>
      <point x="300" y="678"/>
      <point x="300" y="716" type="curve" smooth="yes"/>
      <point x="300" y="974" type="line" smooth="yes"/>
      <point x="300" y="1012"/>
      <point x="272" y="1040"/>
      <point x="235" y="1040" type="curve" smooth="yes"/>
      <point x="198" y="1040"/>
      <point x="170" y="1012"/>
      <point x="170" y="974" type="curve" smooth="yes"/>
      <point x="170" y="66" type="line" smooth="yes"/>
      <point x="170" y="28"/>
      <point x="198" y="0"/>
    </contour>
  </outline>
</glyph>
<glyph name="uni0664" format="1">
  <advance width="1250"/>
  <unicode hex="0664"/>
  <outline>
    <contour>
      <point x="496" y="0" type="curve" smooth="yes"/>
      <point x="1014" y="0" type="line" smooth="yes"/>
      <point x="1052" y="0"/>
      <point x="1080" y="28"/>
      <point x="1080" y="66" type="curve" smooth="yes"/>
      <point x="1080" y="194" type="line" smooth="yes"/>
      <point x="1080" y="232"/>
      <point x="1052" y="260"/>
      <point x="1014" y="260" type="curve" smooth="yes"/>
      <point x="626" y="260" type="line" smooth="yes"/>
      <point x="588" y="260"/>
      <point x="560" y="288"/>
      <point x="560" y="326" type="curve" smooth="yes"/>
      <point x="560" y="454" type="line" smooth="yes"/>
      <point x="560" y="492"/>
      <point x="588" y="520"/>
      <point x="626" y="520" type="curve" smooth="yes"/>
      <point x="1014" y="520" type="line" smooth="yes"/>
      <point x="1052" y="520"/>
      <point x="1080" y="548"/>
      <point x="1080" y="586" type="curve" smooth="yes"/>
      <point x="1080" y="714" type="line" smooth="yes"/>
      <point x="1080" y="752"/>
      <point x="1052" y="780"/>
      <point x="1014" y="780" type="curve" smooth="yes"/>
      <point x="756" y="780" type="line" smooth="yes"/>
      <point x="718" y="780"/>
      <point x="690" y="808"/>
      <point x="690" y="846" type="curve" smooth="yes"/>
      <point x="690" y="974" type="line" smooth="yes"/>
      <point x="690" y="1012"/>
      <point x="718" y="1040"/>
      <point x="756" y="1040" type="curve" smooth="yes"/>
      <point x="1014" y="1040" type="line" smooth="yes"/>
      <point x="1052" y="1040"/>
      <point x="1080" y="1068"/>
      <point x="1080" y="1105" type="curve" smooth="yes"/>
      <point x="1080" y="1143"/>
      <point x="1052" y="1170"/>
      <point x="1014" y="1170" type="curve" smooth="yes"/>
      <point x="626" y="1170" type="line" smooth="yes"/>
      <point x="588" y="1170"/>
      <point x="560" y="1142"/>
      <point x="560" y="1104" type="curve" smooth="yes"/>
      <point x="560" y="653" type="line" smooth="yes"/>
      <point x="560" y="615"/>
      <point x="532" y="587"/>
      <point x="495" y="587" type="curve" smooth="yes"/>
      <point x="458" y="587"/>
      <point x="430" y="559"/>
      <point x="430" y="521" type="curve" smooth="yes"/>
      <point x="430" y="66" type="line" smooth="yes"/>
      <point x="430" y="28"/>
      <point x="458" y="0"/>
    </contour>
  </outline>
</glyph>
<glyph name="uni0665" format="1">
  <advance width="1250"/>
  <unicode hex="0665"/>
  <outline>
    <contour>
      <point x="435" y="0" type="curve" smooth="yes"/>
      <point x="815" y="0" type="line" smooth="yes"/>
      <point x="968" y="0"/>
      <point x="1080" y="112"/>
      <point x="1080" y="265" type="curve" smooth="yes"/>
      <point x="1080" y="905" type="line" smooth="yes"/>
      <point x="1080" y="1058"/>
      <point x="968" y="1170"/>
      <point x="815" y="1170" type="curve" smooth="yes"/>
      <point x="435" y="1170" type="line" smooth="yes"/>
      <point x="282" y="1170"/>
      <point x="170" y="1058"/>
      <point x="170" y="905" type="curve" smooth="yes"/>
      <point x="170" y="265" type="line" smooth="yes"/>
      <point x="170" y="112"/>
      <point x="282" y="0"/>
    </contour>
    <contour>
      <point x="433" y="520" type="line" smooth="yes"/>
      <point x="356" y="520"/>
      <point x="300" y="576"/>
      <point x="300" y="653" type="curve" smooth="yes"/>
      <point x="300" y="907" type="line" smooth="yes"/>
      <point x="300" y="984"/>
      <point x="356" y="1040"/>
      <point x="433" y="1040" type="curve" smooth="yes"/>
      <point x="817" y="1040" type="line" smooth="yes"/>
      <point x="894" y="1040"/>
      <point x="950" y="984"/>
      <point x="950" y="907" type="curve" smooth="yes"/>
      <point x="950" y="653" type="line" smooth="yes"/>
      <point x="950" y="576"/>
      <point x="894" y="520"/>
      <point x="817" y="520" type="curve" smooth="yes"/>
    </contour>
  </outline>
</glyph>
<glyph name="uni0666" format="1">
  <advance width="1250"/>
  <unicode hex="0666"/>
  <outline>
    <contour>
      <point x="886" y="0" type="curve" smooth="yes"/>
      <point x="1014" y="0" type="line" smooth="yes"/>
      <point x="1052" y="0"/>
      <point x="1080" y="28"/>
      <point x="1080" y="66" type="curve" smooth="yes"/>
      <point x="1080" y="519" type="line" smooth="yes"/>
      <point x="1080" y="557"/>
      <point x="1052" y="585"/>
      <point x="1015" y="585" type="curve" smooth="yes"/>
      <point x="978" y="585"/>
      <point x="950" y="613"/>
      <point x="950" y="651" type="curve" smooth="yes"/>
      <point x="950" y="1104" type="line" smooth="yes"/>
      <point x="950" y="1142"/>
      <point x="922" y="1170"/>
      <point x="884" y="1170" type="curve" smooth="yes"/>
      <point x="366" y="1170" type="line" smooth="yes"/>
      <point x="328" y="1170"/>
      <point x="300" y="1142"/>
      <point x="300" y="1104" type="curve" smooth="yes"/>
      <point x="300" y="976" type="line" smooth="yes"/>
      <point x="300" y="938"/>
      <point x="328" y="910"/>
      <point x="366" y="910" type="curve" smooth="yes"/>
      <point x="754" y="910" type="line" smooth="yes"/>
      <point x="792" y="910"/>
      <point x="820" y="882"/>
      <point x="820" y="844" type="curve" smooth="yes"/>
      <point x="820" y="66" type="line" smooth="yes"/>
      <point x="820" y="28"/>
      <point x="848" y="0"/>
    </contour>
  </outline>
</glyph>
<glyph name="uni0667" format="1">
  <advance width="1250"/>
  <unicode hex="0667"/>
  <outline>
    <contour>
      <point x="496" y="0" type="curve" smooth="yes"/>
      <point x="538" y="0" type="line" smooth="yes"/>
      <point x="552" y="0"/>
      <point x="565" y="5"/>
      <point x="576" y="16" type="curve" smooth="yes"/>
      <point x="1064" y="504" type="line" smooth="yes"/>
      <point x="1074" y="514"/>
      <point x="1080" y="528"/>
      <point x="1080" y="542" type="curve" smooth="yes"/>
      <point x="1080" y="1104" type="line" smooth="yes"/>
      <point x="1080" y="1142"/>
      <point x="1052" y="1170"/>
      <point x="1015" y="1170" type="curve" smooth="yes"/>
      <point x="978" y="1170"/>
      <point x="950" y="1142"/>
      <point x="950" y="1104" type="curve" smooth="yes"/>
      <point x="950" y="596" type="line" smooth="yes"/>
      <point x="950" y="582"/>
      <point x="944" y="568"/>
      <point x="934" y="558" type="curve" smooth="yes"/>
      <point x="640" y="264" type="line" smooth="yes"/>
      <point x="624" y="248"/>
      <point x="609" y="241"/>
      <point x="596" y="241" type="curve" smooth="yes"/>
      <point x="575" y="241"/>
      <point x="560" y="261"/>
      <point x="560" y="297" type="curve" smooth="yes"/>
      <point x="560" y="1104" type="line" smooth="yes"/>
      <point x="560" y="1142"/>
      <point x="532" y="1170"/>
      <point x="495" y="1170" type="curve" smooth="yes"/>
      <point x="458" y="1170"/>
      <point x="430" y="1142"/>
      <point x="430" y="1104" type="curve" smooth="yes"/>
      <point x="430" y="66" type="line" smooth="yes"/>
      <point x="430" y="28"/>
      <point x="458" y="0"/>
    </contour>
  </outline>
</glyph>
<glyph name="uni0668" format="1">
  <advance width="1250"/>
  <unicode hex="0668"/>
  <outline>
    <contour>
      <point x="365" y="0" type="curve" smooth="yes"/>
      <point x="402" y="0"/>
      <point x="430" y="28"/>
      <point x="430" y="66" type="curve" smooth="yes"/>
      <point x="430" y="574" type="line" smooth="yes"/>
      <point x="430" y="588"/>
      <point x="436" y="602"/>
      <point x="446" y="612" type="curve" smooth="yes"/>
      <point x="740" y="906" type="line" smooth="yes"/>
      <point x="756" y="922"/>
      <point x="771" y="929"/>
      <point x="784" y="929" type="curve" smooth="yes"/>
      <point x="805" y="929"/>
      <point x="820" y="909"/>
      <point x="820" y="873" type="curve" smooth="yes"/>
      <point x="820" y="66" type="line" smooth="yes"/>
      <point x="820" y="28"/>
      <point x="848" y="0"/>
      <point x="886" y="0" type="curve" smooth="yes"/>
      <point x="1014" y="0" type="line" smooth="yes"/>
      <point x="1052" y="0"/>
      <point x="1080" y="28"/>
      <point x="1080" y="66" type="curve" smooth="yes"/>
      <point x="1080" y="1104" type="line" smooth="yes"/>
      <point x="1080" y="1142"/>
      <point x="1052" y="1170"/>
      <point x="1014" y="1170" type="curve" smooth="yes"/>
      <point x="842" y="1170" type="line" smooth="yes"/>
      <point x="828" y="1170"/>
      <point x="814" y="1164"/>
      <point x="804" y="1154" type="curve" smooth="yes"/>
      <point x="316" y="666" type="line" smooth="yes"/>
      <point x="305" y="655"/>
      <point x="300" y="642"/>
      <point x="300" y="628" type="curve" smooth="yes"/>
      <point x="300" y="66" type="line" smooth="yes"/>
      <point x="300" y="28"/>
      <point x="328" y="0"/>
    </contour>
  </outline>
</glyph>
<glyph name="uni0669" format="1">
  <advance width="1250"/>
  <unicode hex="0669"/>
  <outline>
    <contour>
      <point x="886" y="0" type="curve" smooth="yes"/>
      <point x="1014" y="0" type="line" smooth="yes"/>
      <point x="1052" y="0"/>
      <point x="1080" y="28"/>
      <point x="1080" y="66" type="curve" smooth="yes"/>
      <point x="1080" y="1104" type="line" smooth="yes"/>
      <point x="1080" y="1142"/>
      <point x="1052" y="1170"/>
      <point x="1014" y="1170" type="curve" smooth="yes"/>
      <point x="366" y="1170" type="line" smooth="yes"/>
      <point x="328" y="1170"/>
      <point x="300" y="1142"/>
      <point x="300" y="1104" type="curve" smooth="yes"/>
      <point x="300" y="586" type="line" smooth="yes"/>
      <point x="300" y="548"/>
      <point x="328" y="520"/>
      <point x="366" y="520" type="curve" smooth="yes"/>
      <point x="754" y="520" type="line" smooth="yes"/>
      <point x="792" y="520"/>
      <point x="820" y="492"/>
      <point x="820" y="454" type="curve" smooth="yes"/>
      <point x="820" y="66" type="line" smooth="yes"/>
      <point x="820" y="28"/>
      <point x="848" y="0"/>
    </contour>
    <contour>
      <point x="496" y="780" type="line" smooth="yes"/>
      <point x="458" y="780"/>
      <point x="430" y="808"/>
      <point x="430" y="846" type="curve" smooth="yes"/>
      <point x="430" y="974" type="line" smooth="yes"/>
      <point x="430" y="1012"/>
      <point x="458" y="1040"/>
      <point x="496" y="1040" type="curve" smooth="yes"/>
      <point x="884" y="1040" type="line" smooth="yes"/>
      <point x="922" y="1040"/>
      <point x="950" y="1012"/>
      <point x="950" y="974" type="curve" smooth="yes"/>
      <point x="950" y="846" type="line" smooth="yes"/>
      <point x="950" y="808"/>
      <point x="922" y="780"/>
      <point x="884" y="780" type="curve" smooth="yes"/>
    </contour>
  </outline>
</glyph>
<glyph name="uni2446" format="1">
  <advance width="1250"/>
  <unicode hex="2446"/>
  <outline>
    <contour>
      <point x="236" y="195" type="curve" smooth="yes"/>
      <point x="364" y="195" type="line" smooth="yes"/>
      <point x="402" y="195"/>
      <point x="430" y="223"/>
      <point x="430" y="261" type="curve" smooth="yes"/>
      <point x="430" y="909" type="line" smooth="yes"/>
      <point x="430" y="947"/>
      <point x="402" y="975"/>
      <point x="364" y="975" type="curve" smooth="yes"/>
      <point x="236" y="975" type="line" smooth="yes"/>
      <point x="198" y="975"/>
      <point x="170" y="947"/>
      <point x="170" y="909" type="curve" smooth="yes"/>
      <point x="170" y="261" type="line" smooth="yes"/>
      <point x="170" y="223"/>
      <point x="198" y="195"/>
    </contour>
    <contour>
      <point x="756" y="0" type="curve" smooth="yes"/>
      <point x="1014" y="0" type="line" smooth="yes"/>
      <point x="1052" y="0"/>
      <point x="1080" y="28"/>
      <point x="1080" y="66" type="curve" smooth="yes"/>
      <point x="1080" y="324" type="line" smooth="yes"/>
      <point x="1080" y="362"/>
      <point x="1052" y="390"/>
      <point x="1014" y="390" type="curve" smooth="yes"/>
      <point x="756" y="390" type="line" smooth="yes"/>
      <point x="718" y="390"/>
      <point x="690" y="362"/>
      <point x="690" y="324" type="curve" smooth="yes"/>
      <point x="690" y="66" type="line" smooth="yes"/>
      <point x="690" y="28"/>
      <point x="718" y="0"/>
    </contour>
    <contour>
      <point x="756" y="780" type="curve" smooth="yes"/>
      <point x="1014" y="780" type="line" smooth="yes"/>
      <point x="1052" y="780"/>
      <point x="1080" y="808"/>
      <point x="1080" y="846" type="curve" smooth="yes"/>
      <point x="1080" y="1104" type="line" smooth="yes"/>
      <point x="1080" y="1142"/>
      <point x="1052" y="1170"/>
      <point x="1014" y="1170" type="curve" smooth="yes"/>
      <point x="756" y="1170" type="line" smooth="yes"/>
      <point x="718" y="1170"/>
      <point x="690" y="1142"/>
      <point x="690" y="1104" type="curve" smooth="yes"/>
      <point x="690" y="846" type="line" smooth="yes"/>
      <point x="690" y="808"/>
      <point x="718" y="780"/>
    </contour>
  </outline>
</glyph>
<glyph name="uni2447" format="1">
  <advance width="1250"/>
  <unicode hex="2447"/>
  <outline>
    <contour>
      <point x="886" y="650" type="curve" smooth="yes"/>
      <point x="1014" y="650" type="line" smooth="yes"/>
      <point x="1052" y="650"/>
      <point x="1080" y="678"/>
      <point x="1080" y="716" type="curve" smooth="yes"/>
      <point x="1080" y="1104" type="line" smooth="yes"/>
      <point x="1080" y="1142"/>
      <point x="1052" y="1170"/>
      <point x="1014" y="1170" type="curve" smooth="yes"/>
      <point x="886" y="1170" type="line" smooth="yes"/>
      <point x="848" y="1170"/>
      <point x="820" y="1142"/>
      <point x="820" y="1104" type="curve" smooth="yes"/>
      <point x="820" y="716" type="line" smooth="yes"/>
      <point x="820" y="678"/>
      <point x="848" y="650"/>
    </contour>
    <contour>
      <point x="236" y="0" type="curve" smooth="yes"/>
      <point x="364" y="0" type="line" smooth="yes"/>
      <point x="402" y="0"/>
      <point x="430" y="28"/>
      <point x="430" y="66" type="curve" smooth="yes"/>
      <point x="430" y="454" type="line" smooth="yes"/>
      <point x="430" y="492"/>
      <point x="402" y="520"/>
      <point x="364" y="520" type="curve" smooth="yes"/>
      <point x="236" y="520" type="line" smooth="yes"/>
      <point x="198" y="520"/>
      <point x="170" y="492"/>
      <point x="170" y="454" type="curve" smooth="yes"/>
      <point x="170" y="66" type="line" smooth="yes"/>
      <point x="170" y="28"/>
      <point x="198" y="0"/>
    </contour>
    <contour>
      <point x="625" y="357" type="curve" smooth="yes"/>
      <point x="662" y="357"/>
      <point x="690" y="385"/>
      <point x="690" y="423" type="curve" smooth="yes"/>
      <point x="690" y="876" type="line" smooth="yes"/>
      <point x="690" y="914"/>
      <point x="662" y="942"/>
      <point x="625" y="942" type="curve" smooth="yes"/>
      <point x="588" y="942"/>
      <point x="560" y="914"/>
      <point x="560" y="876" type="curve" smooth="yes"/>
      <point x="560" y="423" type="line" smooth="yes"/>
      <point x="560" y="385"/>
      <point x="588" y="357"/>
    </contour>
  </outline>
</glyph>
<glyph name="uni2448" format="1">
  <advance width="1250"/>
  <unicode hex="2448"/>
  <outline>
    <contour>
      <point x="756" y="390" type="curve" smooth="yes"/>
      <point x="1014" y="390" type="line" smooth="yes"/>
      <point x="1052" y="390"/>
      <point x="1080" y="418"/>
      <point x="1080" y="456" type="curve" smooth="yes"/>
      <point x="1080" y="844" type="line" smooth="yes"/>
      <point x="1080" y="882"/>
      <point x="1052" y="910"/>
      <point x="1014" y="910" type="curve" smooth="yes"/>
      <point x="756" y="910" type="line" smooth="yes"/>
      <point x="718" y="910"/>
      <point x="690" y="882"/>
      <point x="690" y="844" type="curve" smooth="yes"/>
      <point x="690" y="456" type="line" smooth="yes"/>
      <point x="690" y="418"/>
      <point x="718" y="390"/>
    </contour>
    <contour>
      <point x="235" y="0" type="curve" smooth="yes"/>
      <point x="273" y="0"/>
      <point x="300" y="28"/>
      <point x="300" y="66" type="curve" smooth="yes"/>
      <point x="300" y="714" type="line" smooth="yes"/>
      <point x="300" y="752"/>
      <point x="272" y="780"/>
      <point x="235" y="780" type="curve" smooth="yes"/>
      <point x="198" y="780"/>
      <point x="170" y="752"/>
      <point x="170" y="714" type="curve" smooth="yes"/>
      <point x="170" y="66" type="line" smooth="yes"/>
      <point x="170" y="28"/>
      <point x="198" y="0"/>
    </contour>
    <contour>
      <point x="495" y="0" type="curve" smooth="yes"/>
      <point x="533" y="0"/>
      <point x="560" y="28"/>
      <point x="560" y="66" type="curve" smooth="yes"/>
      <point x="560" y="714" type="line" smooth="yes"/>
      <point x="560" y="752"/>
      <point x="532" y="780"/>
      <point x="495" y="780" type="curve" smooth="yes"/>
      <point x="458" y="780"/>
      <point x="430" y="752"/>
      <point x="430" y="714" type="curve" smooth="yes"/>
      <point x="430" y="66" type="line" smooth="yes"/>
      <point x="430" y="28"/>
      <point x="458" y="0"/>
    </contour>
  </outline>
</glyph>
<glyph name="uni2449" format="1">
  <advance width="1250"/>
  <unicode hex="2449"/>
  <outline>
    <contour>
      <point x="626" y="325" type="curve" smooth="yes"/>
      <point x="754" y="325" type="line" smooth="yes"/>
      <point x="792" y="325"/>
      <point x="820" y="353"/>
      <point x="820" y="391" type="curve" smooth="yes"/>
      <point x="820" y="779" type="line" smooth="yes"/>
      <point x="820" y="817"/>
      <point x="792" y="845"/>
      <point x="754" y="845" type="curve" smooth="yes"/>
      <point x="626" y="845" type="line" smooth="yes"/>
      <point x="588" y="845"/>
      <point x="560" y="817"/>
      <point x="560" y="779" type="curve" smooth="yes"/>
      <point x="560" y="391" type="line" smooth="yes"/>
      <point x="560" y="353"/>
      <point x="588" y="325"/>
    </contour>
    <contour>
      <point x="236" y="325" type="curve" smooth="yes"/>
      <point x="364" y="325" type="line" smooth="yes"/>
      <point x="402" y="325"/>
      <point x="430" y="353"/>
      <point x="430" y="391" type="curve" smooth="yes"/>
      <point x="430" y="779" type="line" smooth="yes"/>
      <point x="430" y="817"/>
      <point x="402" y="845"/>
      <point x="364" y="845" type="curve" smooth="yes"/>
      <point x="236" y="845" type="line" smooth="yes"/>
      <point x="198" y="845"/>
      <point x="170" y="817"/>
      <point x="170" y="779" type="curve" smooth="yes"/>
      <point x="170" y="391" type="line" smooth="yes"/>
      <point x="170" y="353"/>
      <point x="198" y="325"/>
    </contour>
    <contour>
      <point x="1015" y="325" type="curve" smooth="yes"/>
      <point x="1052" y="325"/>
      <point x="1080" y="353"/>
      <point x="1080" y="391" type="curve" smooth="yes"/>
      <point x="1080" y="779" type="line" smooth="yes"/>
      <point x="1080" y="817"/>
      <point x="1052" y="845"/>
      <point x="1015" y="845" type="curve" smooth="yes"/>
      <point x="978" y="845"/>
      <point x="950" y="817"/>
      <point x="950" y="779" type="curve" smooth="yes"/>
      <point x="950" y="391" type="line" smooth="yes"/>
      <point x="950" y="353"/>
      <point x="978" y="325"/>
    </contour>
  </outline>
</glyph>
